<?xml version="1.0" encoding="UTF-8"?> <svg xmlns="http://www.w3.org/2000/svg" width="1712" height="289" viewBox="0 0 1712 289" fill="none"><path d="M1485.02 81.3707C1475.76 77.9911 1471.02 67.7724 1474.4 58.5993C1477.78 49.346 1487.91 44.5985 1497.17 47.978C1477.94 40.9776 1456.61 50.8747 1449.61 70.1057C1442.61 89.4173 1452.51 110.66 1471.82 117.741L1654.15 184.044L1497.17 241.174C1477.94 248.174 1456.61 238.278 1449.61 219.046C1442.61 199.734 1452.51 178.492 1471.82 171.411C1442.53 182.113 1427.4 214.54 1438.02 243.829C1448.73 273.118 1481.07 288.165 1510.36 277.544L1681.67 215.184C1698.81 208.988 1707.74 189.918 1701.47 172.699C1698 163.123 1690.52 156.123 1681.67 152.904L1485.02 81.3707Z" fill="#1CA18A"></path><path d="M1654.15 105.108L1497.17 47.9782C1477.94 40.9779 1456.61 50.8749 1449.61 70.106C1442.61 89.4175 1452.51 110.66 1471.82 117.661C1442.53 107.04 1427.4 74.612 1438.02 45.3227C1448.73 16.0336 1481.15 0.906458 1510.44 11.6083L1681.67 73.9684C1698.81 80.1641 1707.74 99.2345 1701.47 116.454C1697.93 126.029 1690.52 133.03 1681.67 136.248L1485.02 207.781C1475.76 211.161 1471.02 221.38 1474.4 230.553C1477.78 239.806 1487.99 244.554 1497.17 241.174C1477.94 248.175 1456.61 238.278 1449.61 219.046C1442.61 199.735 1452.51 178.492 1471.82 171.492L1654.15 105.108Z" fill="#61C799"></path><path d="M65.1337 141.157H38.8215V186.459H66.5825C82.675 186.459 91.446 178.01 91.446 163.446C91.446 150.33 81.9509 141.157 65.1337 141.157ZM60.3047 79.0383H38.8215V117.018H61.5128C76.8813 117.018 83.8014 109.374 83.8014 97.2235C83.8014 85.4757 75.0297 79.0383 60.3047 79.0383ZM7.76221 54.4162H61.9138C94.4217 54.4162 116.308 67.4512 116.308 93.9242C116.308 111.466 103.595 123.214 88.1458 126.835V127.319C112.125 130.538 124.515 147.596 124.515 166.264C124.515 195.231 101.101 211.324 69.8007 211.324H7.76221V54.4162ZM409.764 142.525H461.342C459.976 129.651 450.077 119.03 435.593 119.03C420.385 119.03 410.89 130.294 409.764 142.525ZM491.919 155.4C491.919 157.975 491.918 160.71 491.509 163.687H409.516C409.516 178.895 422.39 192.011 438.081 192.011C448.219 192.011 455.381 187.666 460.209 180.505L485.796 189.838C477.186 204.242 461.818 215.265 437.84 215.265C404.93 215.265 379.18 191.367 379.18 155.4C379.18 123.857 399.861 97.3843 435.748 97.3843C472.118 97.3843 491.919 124.582 491.919 155.4ZM1337.52 130.777C1336.79 122.972 1331.72 118.386 1324.88 118.386C1317.48 118.386 1313.62 123.213 1313.62 128.041C1313.62 134.237 1317 138.18 1335.66 144.617C1358.92 152.181 1367.45 163.929 1367.45 179.78C1367.45 200.057 1352 215.265 1324.88 215.265C1296.8 215.265 1283.44 200.54 1282.24 179.136H1310.08C1310.8 187.827 1315.39 194.103 1325.53 194.103C1333.41 194.103 1338.16 188.792 1338.16 182.355C1338.16 174.711 1332.93 170.124 1316.35 164.653C1295.59 157.974 1284.81 147.595 1284.81 130.295C1284.81 110.5 1300.9 97.3843 1324.64 97.3843C1349.02 97.3843 1362.62 111.466 1364.87 130.777H1337.52ZM1191.15 142.525H1242.73C1241.36 129.651 1231.46 119.03 1216.98 119.03C1201.77 119.03 1192.36 130.294 1191.15 142.525ZM1273.39 155.4C1273.39 157.975 1273.39 160.71 1272.92 163.687H1191C1191 178.895 1203.88 192.011 1219.49 192.011C1229.63 192.011 1236.79 187.666 1241.62 180.505L1267.21 189.838C1258.6 204.242 1243.31 215.265 1219.25 215.265C1186.34 215.265 1160.59 191.367 1160.59 155.4C1160.59 123.857 1181.27 97.3843 1217.24 97.3843C1253.61 97.3843 1273.39 124.582 1273.39 155.4ZM1040.05 45.6455H1071.11V114.926H1072C1079.65 102.695 1092.04 97.6258 1104.51 97.6258C1129.13 97.6258 1146.35 113.96 1146.35 148.077V211.322H1115.29V149.928C1115.29 133.513 1107.48 125.064 1094.61 125.064C1081.01 125.064 1071.12 134.479 1071.12 153.146V211.322H1040.05L1040.05 45.6455ZM960.957 186.7C976.326 186.7 988.959 174.067 988.959 155.882C988.959 136.973 976.808 124.581 961.118 124.581C942.53 124.581 932.874 140.192 932.874 155.641C932.874 170.849 941.565 186.7 960.957 186.7ZM1018.25 207.863C1018.25 248.9 999.821 270.544 959.106 270.544C932.311 270.544 913.403 257.912 906.161 236.669L934.645 226.289C936.981 236.91 944.784 245.198 960.957 245.198C979.544 245.198 989.199 233.451 989.199 212.047V197.965H988.558C981.155 206.736 970.373 213.897 953.315 213.897C924.83 213.897 901.333 191.528 901.333 155.882C901.333 122.731 924.105 97.6258 954.681 97.6258C972.223 97.6258 982.603 106.638 988.075 114.443H989.201V101.086H1018.25L1018.25 207.863ZM885.239 211.323H854.42V197.563H853.697C844.765 210.679 833.5 215.024 821.511 215.024C803.568 215.024 781.439 204 781.439 166.504V101.086H812.498V162.561C812.498 178.654 820.142 187.425 832.131 187.425C845.65 187.425 854.18 178.01 854.18 159.584V101.086H885.239V211.323ZM728.493 144.617H668.064V211.323H635.155V54.4162H668.064V116.052H728.493V54.4162H761.404V211.323H728.493V144.617ZM581.887 127.8C577.946 127.075 573.357 126.432 567.161 126.432C548.734 126.432 539.563 137.939 539.563 157.733V211.323H508.423V101.086H538.839V118.144H539.563C545.517 107.362 557.023 97.8672 571.748 97.8672C576.092 97.8672 578.91 98.1065 581.887 98.8335V127.8ZM314.743 166.021L307.662 172.941V211.323H276.604V45.646H307.662V138.422L342.585 101.086H380.403L336.228 146.468L387.082 211.323H349.504L314.743 166.021ZM196.782 188.068C211.508 188.068 224.381 175.194 224.381 156.607C224.381 137.215 212.394 124.582 197.024 124.582C177.632 124.582 168.46 140.433 168.46 156.365C168.46 172.458 177.471 188.068 196.782 188.068ZM253.831 211.323H223.898V197.563H223.011C215.849 206.978 205.067 215.024 187.124 215.024C165.72 215.024 136.912 197.805 136.912 156.124C136.912 120.639 161.294 98.1087 189.376 98.1087C206.676 98.1087 217.057 106.638 223.011 115.409H223.898V101.086H253.831V211.323Z" fill="white"></path></svg> 