<?xml version="1.0" encoding="UTF-8"?> <svg xmlns="http://www.w3.org/2000/svg" width="724" height="120" viewBox="0 0 724 120" fill="none"><path d="M145.767 2.70324H77.4674C77.4674 2.70324 28.9672 -0.996792 18.4672 30.8032L3.56729 76.3032C3.56729 76.3032 -10.7328 117.903 44.1672 117.903H146.967L183.267 95.3033L175.867 117.903H685.267L721.867 2.60324H170.767L138.967 23.9032L145.767 2.70324Z" fill="#00509E"></path><path d="M664.968 95.4032H598.268L620.768 24.4032H687.568L682.868 39.3032H640.568L636.868 51.1032L679.168 51.0032L674.168 66.6032H631.968L627.568 80.5032H669.768L664.968 95.4032Z" fill="white"></path><path d="M586.067 95.4032H526.067L549.167 24.4032H575.267L557.267 80.1032L591.167 80.0032L586.067 95.4032Z" fill="white"></path><path d="M432.967 24.4032L410.067 95.4032L384.467 95.5032L407.067 24.4032H432.967Z" fill="white"></path><path d="M362.768 24.4032L345.268 79.8032H379.168L374.168 95.5032L314.268 95.4032L337.168 24.4032H362.768Z" fill="white"></path><path d="M191.867 66.9032H161.367L200.267 40.8032L191.867 66.9032ZM70.3674 24.0031C55.0674 24.0031 49.2674 27.4032 45.0674 37.5032L30.9673 81.5032C28.4673 89.2033 35.8673 95.4032 47.3673 95.4032H118.667L136.867 83.2032H187.067L183.167 95.3032H208.967L231.967 24.3031H196.067L114.167 79.4032H58.0674L71.2673 38.7031H116.867L138.967 24.0031H70.3674Z" fill="white"></path><path d="M475.368 40.0032H530.267L535.567 24.4032H477.068L473.267 24.5031C471.667 24.5031 470.067 24.7029 468.467 25.1029C458.167 27.203 445.267 36.003 442.067 46.603C438.567 58.103 443.668 67.5031 452.268 68.303H493.767C500.467 68.4032 501.067 71.703 499.067 74.803C497.067 77.903 494.367 79.803 486.467 79.803H458.067H426.368L421.268 95.603H491.967C502.767 95.5028 518.168 85.803 521.868 73.803C525.568 61.803 519.867 51.303 510.167 51.403H468.267C463.667 51.403 462.468 48.103 464.468 45.003C466.368 41.603 468.768 40.0032 475.368 40.0032Z" fill="white"></path><path d="M313.667 46.5033C317.367 34.4033 312.067 24.3033 302.367 24.4033H243.367L220.367 95.4033H247.567L258.867 57.6033L264.667 39.6033H280.367C289.767 39.6033 293.067 44.5034 290.067 50.3033C286.867 56.5034 281.267 57.3034 274.567 57.7033H258.967L280.367 95.5034H307.467L292.267 68.6033L291.567 67.3034C300.867 64.1034 310.767 56.0033 313.667 46.5033Z" fill="white"></path><path d="M665.268 103.103C665.268 99.8033 667.968 97.1031 671.268 97.1031C674.568 97.1031 677.268 99.8033 677.268 103.103C677.268 106.403 674.568 109.103 671.268 109.103C667.968 109.203 665.268 106.503 665.268 103.103ZM676.168 103.103C676.168 100.403 673.968 98.2033 671.268 98.2033C668.568 98.2033 666.368 100.403 666.368 103.103C666.368 105.803 668.568 108.003 671.268 108.003C674.068 108.003 676.168 105.903 676.168 103.103ZM674.268 106.403H672.768L671.268 103.703H669.968V106.403H668.668V99.9032H671.868C672.468 99.9032 673.168 99.9032 673.668 100.203C674.268 100.603 674.468 101.203 674.468 101.903C674.468 103.103 673.868 103.603 672.668 103.703L674.268 106.403ZM671.968 102.703C672.668 102.703 673.168 102.503 673.168 101.703C673.168 100.803 672.268 100.803 671.568 100.803H669.968V102.603L671.968 102.703Z" fill="white"></path></svg> 