<?xml version="1.0" encoding="UTF-8"?> <svg xmlns="http://www.w3.org/2000/svg" width="1331" height="271" viewBox="0 0 1331 271" fill="none"><path d="M463.97 170.31C462.962 181.357 454.328 212.097 415.147 212.097C374.968 212.097 365.745 181.357 365.745 158.866C365.745 124.296 380.804 99.5841 416.96 99.5841C433.843 99.5841 461.569 107.21 464.175 140.567H435.644C434.431 133.531 430.024 122.495 416.96 123.288C399.284 123.288 394.649 140.964 394.649 154.221C394.649 165.88 395.057 188.983 416.359 188.983C430.636 188.983 435.44 175.329 435.44 170.31H463.97Z" fill="#0099D8"></path><path d="M551.777 155.835C551.777 169.5 547.754 188.4 526.045 188.4C504.369 188.4 500.336 169.5 500.336 155.835C500.336 142.17 504.369 123.293 526.045 123.293C547.754 123.293 551.777 142.17 551.777 155.835ZM580.693 155.835C580.693 117.266 554.779 99.5786 526.045 99.5786C497.322 99.5786 471.408 117.266 471.408 155.835C471.408 194.416 497.322 212.103 526.045 212.103C554.779 212.103 580.693 194.416 580.693 155.835Z" fill="#0099D8"></path><path d="M690.996 209.282H662.884V144.391C662.884 136.55 662.465 123.293 644.597 123.293C632.121 123.293 622.49 131.724 622.49 147.994V209.282H594.368V102.389H621.29V118.07H621.686C625.505 111.634 633.549 99.5786 653.843 99.5786C674.725 99.5786 690.996 111.85 690.996 135.349V209.282Z" fill="#0099D8"></path><path d="M819.399 90.5379H742.827V120.87H813.145V146.398H742.827V183.755H822.799V209.283H713.311V65.0212H819.399V90.5379Z" fill="#0099D8"></path><path d="M861.772 156.647C861.772 139.765 867.8 123.891 885.68 123.891C904.976 123.891 909.791 141.17 909.791 158.257C909.791 174.12 902.766 188.985 884.875 188.985C866.803 188.985 861.772 169.304 861.772 156.647ZM936.713 65.0168H908.601V116.254H908.194C903.786 109.421 895.333 99.5863 877.25 99.5863C853.75 99.5863 832.856 117.67 832.856 154.642C832.856 183.966 846.101 212.099 877.85 212.099C889.509 212.099 901.95 207.862 908.794 195.818H909.202V209.278H936.713V65.0168Z" fill="#0099D8"></path><path d="M984.724 63.6243H956.612V89.7412H984.724V63.6243ZM956.612 209.28H984.724V102.386H956.612V209.28Z" fill="#0099D8"></path><path d="M1066.08 134.942C1064.9 128.12 1062.48 120.869 1047.22 120.869C1031.94 120.869 1029.95 126.704 1029.95 131.338C1029.95 148.21 1096.83 135.95 1096.83 175.324C1096.83 206.461 1066.69 212.103 1050.05 212.103C1025.72 212.103 999.411 203.662 998.595 175.131H1027.53C1027.53 184.173 1033.15 190.801 1050.84 190.801C1065.3 190.801 1068.71 183.754 1068.71 179.743C1068.71 161.875 1002.41 175.324 1002.41 135.349C1002.41 119.679 1012.26 99.5786 1045.62 99.5786C1066.51 99.5786 1091.4 104.802 1093.63 134.942H1066.08Z" fill="#0099D8"></path><path d="M1185.45 155.835C1185.45 169.5 1181.44 188.4 1159.73 188.4C1138.03 188.4 1134.02 169.5 1134.02 155.835C1134.02 142.17 1138.03 123.293 1159.73 123.293C1181.44 123.293 1185.45 142.17 1185.45 155.835ZM1214.38 155.835C1214.38 117.266 1188.46 99.5786 1159.73 99.5786C1131.01 99.5786 1105.09 117.266 1105.09 155.835C1105.09 194.416 1131.01 212.103 1159.73 212.103C1188.46 212.103 1214.38 194.416 1214.38 155.835Z" fill="#0099D8"></path><path d="M1324.67 209.282H1296.55V144.391C1296.55 136.55 1296.14 123.293 1278.26 123.293C1265.81 123.293 1256.16 131.724 1256.16 147.994V209.282H1228.04V102.389H1254.96V118.07H1255.37C1259.17 111.634 1267.21 99.5786 1287.52 99.5786C1308.4 99.5786 1324.67 111.85 1324.67 135.349V209.282Z" fill="#0099D8"></path><path d="M313.556 230.76H138.555C86.8524 230.76 44.8034 188.701 44.8034 137.011C44.8034 85.3089 86.8524 43.2606 138.555 43.2606H313.556V10.6512H138.555C68.8593 10.6512 12.1714 67.3272 12.1714 137.011C12.1714 206.694 68.8593 263.392 138.555 263.392H313.556V230.76Z" fill="#0099D8"></path><path d="M68.6274 137.276C68.6274 177.33 101.215 209.928 141.268 209.928H313.313V177.307H141.268C119.208 177.307 101.25 159.359 101.25 137.276C101.25 115.204 119.208 97.2444 141.268 97.2444H313.313V64.6234H141.268C101.215 64.6234 68.6274 97.2218 68.6274 137.276Z" fill="#0099D8"></path><path d="M313.555 120.851H140.184C131.189 120.851 123.88 128.147 123.88 137.144C123.88 146.163 131.189 153.472 140.184 153.472H313.555V120.851Z" fill="#0099D8"></path></svg> 