<?xml version="1.0" encoding="UTF-8"?> <svg xmlns="http://www.w3.org/2000/svg" width="599" height="210" viewBox="0 0 599 210" fill="none"><path d="M458.189 193.647C455.993 193.647 453.975 193.276 452.136 192.535C450.297 191.794 448.691 190.751 447.318 189.406C445.973 188.033 444.93 186.427 444.189 184.588C443.448 182.749 443.077 180.731 443.077 178.535C443.077 176.339 443.448 174.322 444.189 172.482C444.93 170.643 445.973 169.051 447.318 167.706C448.691 166.333 450.297 165.276 452.136 164.535C453.975 163.794 455.993 163.424 458.189 163.424C460.275 163.424 462.224 163.794 464.036 164.535C465.875 165.276 467.481 166.333 468.854 167.706C470.254 169.051 471.338 170.643 472.107 172.482C472.903 174.322 473.301 176.339 473.301 178.535C473.301 180.731 472.93 182.749 472.189 184.588C471.448 186.427 470.391 188.033 469.018 189.406C467.673 190.751 466.081 191.794 464.242 192.535C462.403 193.276 460.385 193.647 458.189 193.647ZM458.189 191.465C459.946 191.465 461.593 191.149 463.13 190.518C464.667 189.886 466.026 188.994 467.207 187.841C468.387 186.661 469.307 185.288 469.965 183.724C470.624 182.159 470.954 180.429 470.954 178.535C470.954 176.751 470.638 175.076 470.007 173.512C469.375 171.947 468.483 170.575 467.33 169.394C466.205 168.214 464.859 167.294 463.295 166.635C461.758 165.949 460.056 165.606 458.189 165.606C455.718 165.606 453.509 166.169 451.56 167.294C449.638 168.392 448.128 169.916 447.03 171.865C445.932 173.786 445.383 176.01 445.383 178.535C445.383 180.32 445.699 181.994 446.33 183.559C446.961 185.124 447.84 186.496 448.965 187.676C450.118 188.857 451.477 189.79 453.042 190.476C454.607 191.135 456.322 191.465 458.189 191.465ZM452.548 187.553V169.559H457.818C460.069 169.559 461.716 169.998 462.76 170.876C463.803 171.755 464.324 173.086 464.324 174.871C464.324 176.161 463.995 177.19 463.336 177.959C462.677 178.7 461.936 179.235 461.112 179.565L465.889 187.553H462.348L458.23 180.429H455.677V187.553H452.548ZM457.736 177.876C458.807 177.876 459.644 177.602 460.248 177.053C460.852 176.504 461.154 175.804 461.154 174.953C461.154 173.992 460.879 173.292 460.33 172.853C459.781 172.414 458.903 172.194 457.695 172.194H455.677V177.876H457.736Z" fill="#EB192E"></path><path d="M5.76514 105L299.883 5L594 105L299.883 205" fill="#EB192E"></path><path d="M157.871 138H157.642C157.642 139.559 153.883 140.794 149.242 140.841V145.218C149.242 145.218 195.753 145.218 209.759 145.218C222.789 145.218 242.953 129.188 242.953 105.412C242.953 83.4294 225.106 64.3529 209.759 64.3529C195.871 64.3529 149.242 64.3529 149.242 64.3529V68.2765C149.259 68.2765 149.277 68.2765 149.318 68.2765C153.795 68.2765 157.359 69.4235 157.812 70.8588H157.871V70.9706C157.889 71.0353 157.959 71.0765 157.959 71.1529C157.959 71.1823 157.889 71.2176 157.871 71.2882V138ZM176.395 81.4176C176.395 81.4176 194.177 81.4176 208.059 81.4176C214.271 81.4176 225.771 89.7294 225.795 105.076C225.818 119.859 215.918 127.435 208.059 127.435C194.077 127.435 176.395 127.435 176.395 127.435V81.4176ZM341.224 112.018C341.224 91.9529 324.312 75.6823 298.53 75.6823C272.595 75.6823 255.824 92.0117 255.824 112.018C255.824 132.659 270.395 146.259 293.059 148.135H304.006C326.671 146.259 341.224 132.659 341.224 112.018ZM274.553 112.988C274.553 101.718 284.03 92.6294 298.595 92.6294C313.171 92.6294 322.63 101.718 322.63 112.988C322.63 124.235 313.171 133.347 298.595 133.347C284.036 133.347 274.553 124.235 274.553 112.988ZM439.412 138.759C439.412 138.759 462.436 87.2471 462.483 87.1941C463.189 86.2235 464.389 85.3529 466.189 84.9765C466.783 84.8647 469.43 84.8765 469.43 84.8765V79.8529L437.153 79.9824V84.8588C437.312 84.8588 438.083 84.8588 438.201 84.8706C442.171 84.9412 442.695 86.1177 442.695 87.5589L430.106 120.565L415.848 82.0353L405.195 82.0942H394.012L380.818 119.047L370.095 87.4177H370.253C370.253 84.9412 371.842 84.7353 374.283 84.7353V80.0059H342.836V84.7353C347.812 84.7353 347.489 85.8647 348.336 87.4177C348.359 87.4412 348.295 87.4824 348.295 87.5059L367.453 137.047C367.642 137.524 367.642 138.018 367.642 138.571C367.642 141.312 365.271 141.788 362.459 141.859V146.494L396.824 146.624V142.029C396.806 142.029 396.806 142.029 396.806 142.029C393.182 142.029 391.824 141.353 391.824 138.747C391.824 138.335 391.894 137.965 392.2 137.629L405.194 109.312C405.194 109.312 416.3 137.688 416.3 138.676C416.3 141.153 415.447 142.029 412.359 142.029V146.623L444.218 146.382V141.882C439.377 141.882 439.336 140.853 439.412 138.759Z" fill="white"></path></svg> 