<?xml version="1.0" encoding="UTF-8"?> <svg xmlns="http://www.w3.org/2000/svg" width="965" height="322" viewBox="0 0 965 322" fill="none"><path d="M195.921 276.048C189.06 283.342 179.94 288.095 170.038 289.551C155.036 290.453 140.411 281.226 135.982 247.694L75.3699 229.841C101.853 324.138 175.141 320.833 200.35 279.802C202.07 277.102 201.548 275.753 200.35 275.078C199.143 274.404 197.651 274.404 195.921 276.048ZM195.921 28.5016C171.541 -20.2562 85.1266 27.9019 70.1239 153.775C68.8798 159.553 71.6028 165.451 76.7945 168.256C84.4667 172.434 92.8297 175.2 101.48 176.429C108.106 177.983 114.93 178.56 121.731 178.158C127.825 177.892 132.875 173.321 133.731 167.278C146.636 32.2533 177.468 1.6481 191.797 30.6773C193.443 34.0505 197.651 32.2533 195.846 28.5016H195.921Z" fill="#005A84"></path><path d="M180.989 71.1083C174.924 70.1456 168.851 72.8142 165.463 77.938C161.884 84.3759 159.549 91.4173 158.555 98.7187C156.956 106.104 156.471 113.692 157.131 121.221C158.297 125.238 161.952 128.014 166.138 128.045C193.741 129.772 274.755 141.326 286.158 164.882C293.665 181.084 271.155 185.208 254.507 189.484C248.964 190.484 244.628 194.821 243.626 200.362C241.732 208.741 243.362 217.519 248.131 224.669C250.239 228.225 254.84 229.399 258.404 227.292L259.382 226.618C267.962 220.962 275.567 213.948 281.882 205.838C336.045 130.296 222.475 71.9331 180.989 71.1083Z" fill="#51B849"></path><path d="M208.818 194.806C72.9666 209.809 -34.2357 147.702 46.9322 132.624C46.9322 132.624 57.2865 130.221 59.2351 124.367C61.1838 118.522 61.7835 116.87 64.0348 108.241C65.4594 102.919 66.7346 99.9166 68.0912 95.7924C70.2591 89.4167 66.2105 85.5893 57.2109 90.0165C-16.9797 126.248 4.70335 193.912 65.2401 227.816C104.876 250.984 151.639 258.809 196.664 249.794C204.14 248.377 210.652 243.851 214.594 237.346C220.698 228.179 223.358 217.149 222.093 206.209C222.206 202.82 220.765 199.567 218.173 197.376C215.587 195.185 212.138 194.29 208.818 194.958V194.806Z" fill="#2CBFD9"></path><path d="M366.133 26.0009H339.423V150.677H365.677C408.967 150.677 435.896 126.523 435.896 87.6596C435.896 50.2304 408.511 26.0009 366.133 26.0009ZM357.801 43.028H361.477C387.057 43.028 417.518 50.5254 417.518 88.0379C417.518 125.545 387.057 133.042 361.477 133.042H357.801V43.028ZM520.208 99.2133C520.208 123.815 511.211 135.748 492.528 135.748C473.849 135.748 464.774 123.891 464.774 99.2133V26.0009H446.396V104.391C446.396 133.572 464.85 153.223 492.452 153.223C520.065 153.223 538.518 133.648 538.518 104.391V26.0009H520.208V99.2133ZM590.723 82.262L646.986 25.9253H622.603L573.399 76.257V25.9253H555.015V150.677H573.399V99.2133L577.677 95.0891L622.679 150.896H647.735L590.723 82.262ZM722.754 133.572H672.716V90.8891H721.404V73.7864H672.716V43.028H722.754V25.9253H654.415V150.677H722.754V133.572ZM339.423 309.703H407.686V292.601H357.801V249.918H406.411V232.889H357.801V202.062H407.686V185.028H339.423V309.703ZM548.04 309.703H616.53V292.601H566.418V249.918H615.106V232.889H566.418V202.062H616.53V185.028H548.04V309.703ZM548.04 309.703H616.53V292.601H566.418V249.918H615.106V232.889H566.418V202.062H616.53V185.028H548.04V309.703ZM513.681 185.028V272.35L433.872 185.028H422.689V309.703H441.067V221.562L520.208 309.703H531.913V185.028H513.681ZM702.201 221.267C702.216 208.993 695.81 197.612 685.318 191.26C675.045 186.53 663.732 184.519 652.459 185.406H632.732V309.703H651.11V258.318H655.24L690.942 309.703H713.452L674.294 256.748C691.117 253.489 702.997 238.377 702.201 221.267ZM684.794 221.942C684.794 236.194 675.34 242.572 654.186 242.572H650.965V201.76H653.362C674.816 201.76 684.794 208.211 684.794 221.867V221.942ZM782.761 262.298H814.118C812.396 280.979 792.669 295.155 776.013 295.155C750.425 293.913 730.304 272.835 730.252 247.218C729.631 226.892 742.351 208.537 761.608 201.979C780.865 195.429 802.139 202.222 814.042 218.713L815.171 220.213L827.771 207.765L826.869 206.559C808.021 183.285 775.687 175.939 748.63 188.781C721.57 201.624 706.818 231.321 712.928 260.645C719.04 289.963 744.43 311.297 774.359 312.259C806.315 312.927 832.775 287.574 833.472 255.618V245.269H782.761V262.298ZM910.818 185.028L881.932 235.293L853.13 185.028H831.971L872.781 255.694V309.703H891.159V255.694L931.969 185.028H910.818ZM917.337 291.63C917.3 281.146 925.761 272.616 936.247 272.571C946.724 272.532 955.259 280.992 955.298 291.479C955.337 301.955 946.875 310.493 936.398 310.53C931.402 310.569 926.595 308.628 923.039 305.125C919.476 301.622 917.452 296.845 917.413 291.85C917.413 291.85 917.337 291.706 917.337 291.63ZM920.415 291.63C920.378 300.409 927.459 307.566 936.247 307.603C945.025 307.65 952.183 300.56 952.22 291.774C952.267 282.995 945.177 275.838 936.398 275.801C932.198 275.777 928.165 277.429 925.176 280.379C922.197 283.335 920.514 287.355 920.491 291.555L920.415 291.63ZM945.018 302.433H941.493L936.094 292.601H932.123V302.357H929.044V281.123H937.966C941.796 281.123 945.474 282.252 945.474 286.755C945.594 288.187 945.148 289.606 944.214 290.704C943.282 291.805 941.955 292.486 940.522 292.601H939.847L945.018 302.433ZM932.123 284.201V289.53H935.42C938.271 289.53 942.242 289.977 942.242 287.127C942.242 284.276 939.998 284.276 937.444 284.276L932.123 284.201Z" fill="white"></path></svg> 