<?xml version="1.0" encoding="UTF-8"?> <svg xmlns="http://www.w3.org/2000/svg" width="702" height="440" viewBox="0 0 702 440" fill="none"><g clip-path="url(#clip0_2_193)"><path fill-rule="evenodd" clip-rule="evenodd" d="M20.9086 0.511841H680.57C692.051 0.511841 701.479 9.93995 701.479 21.4849V418.179C701.479 429.724 692.051 439.217 680.57 439.217H20.9086C9.42811 439.217 0 429.724 0 418.179V21.4849C0 9.93992 9.42811 0.511841 20.9086 0.511841Z" fill="#FFF500"></path><path fill-rule="evenodd" clip-rule="evenodd" d="M542.157 286.705V308.897L441.461 379.385H58.6191V357.194L159.317 286.705H542.157ZM642.855 60.2981V82.4897L542.157 152.977H159.318V130.786L260.014 60.2981H642.855ZM242.826 163.111H159.318V276.571H245.519V256.496H182.536V227.057H237.887V207.046H182.536V183.186H242.826V163.111ZM249.432 241.616C249.432 255.727 256.551 279.586 297.984 279.586C307.989 279.586 342.752 276.571 342.752 242.449C342.752 221.99 328.515 215.768 312.993 211.984L285.349 205.185C280.602 204.031 273.356 202.171 273.356 193.32C273.356 182.993 284.067 179.722 293.11 179.722C313.826 179.722 315.687 191.717 316.328 196.783H339.097C338.969 182.865 329.604 160.097 294.841 160.097C257.962 160.097 251.163 182.416 251.163 195.052C251.163 219.938 268.93 224.106 287.273 228.339L299.395 231.161C311.454 234.047 319.984 236.421 319.984 245.272C319.984 257.265 307.477 259.959 296.252 259.959C275.536 259.959 272.393 247.965 272.2 241.615L249.432 241.616ZM372.127 253.161L364.175 276.571H339.289L379.697 163.111H407.019L447.041 276.571H421.258L414.011 253.161H372.127ZM392.973 188.701L378.414 233.535H407.339L393.294 188.701H392.973ZM449.607 276.571H497.646C520.928 276.571 527.085 272.595 533.564 266.309C539.593 260.473 543.377 251.878 543.377 242.899C543.377 231.675 539.721 220.578 525.803 215.448C530.55 213.075 539.721 208.457 539.721 192.166C539.721 180.492 532.602 163.111 504.766 163.111H449.607L449.607 276.571ZM472.376 226.607H502.585C511.115 226.607 519.646 230.392 519.646 240.334C519.646 251.877 512.975 256.945 501.43 256.945H472.376L472.376 226.607ZM472.376 182.738H499.57C510.346 182.738 516.952 185.559 516.952 194.86C516.952 203.903 509.512 207.559 500.212 207.559H472.375L472.376 182.738ZM618.227 189.921V170.487H626.436C628.552 170.487 630.027 170.679 630.99 171C631.952 171.385 632.657 171.962 633.235 172.859C633.812 173.758 634.069 174.784 634.069 175.939C634.069 177.414 633.683 178.568 632.786 179.53C631.952 180.492 630.669 181.07 628.937 181.326C629.835 181.839 630.541 182.352 631.054 182.93C631.631 183.57 632.337 184.597 633.298 186.136L635.672 189.921H630.99L628.167 185.687C627.141 184.148 626.436 183.186 626.052 182.801C625.73 182.416 625.346 182.159 624.896 182.032C624.512 181.839 623.806 181.775 622.909 181.775H622.139V189.921L618.227 189.921ZM622.139 178.696H625.024C626.884 178.696 628.104 178.632 628.552 178.439C629.001 178.311 629.386 178.055 629.643 177.67C629.899 177.221 630.027 176.772 630.027 176.195C630.027 175.553 629.899 174.976 629.515 174.591C629.193 174.207 628.681 173.95 628.039 173.822C627.718 173.822 626.756 173.758 625.218 173.758H622.139V178.696ZM625.538 165.548C617.328 165.548 610.657 172.219 610.657 180.428C610.657 188.638 617.328 195.308 625.538 195.308C633.683 195.308 640.354 188.638 640.354 180.428C640.354 172.219 633.683 165.548 625.538 165.548ZM625.538 163.111C615.981 163.111 608.156 170.871 608.156 180.428C608.156 189.984 615.981 197.746 625.538 197.746C635.03 197.746 642.855 189.984 642.855 180.428C642.855 170.871 635.03 163.111 625.538 163.111Z" fill="#1F1A17"></path></g><defs><clipPath id="clip0_2_193"><rect width="701.48" height="438.705" fill="white" transform="translate(0 0.511841)"></rect></clipPath></defs></svg> 