<?xml version="1.0" encoding="UTF-8"?> <svg xmlns="http://www.w3.org/2000/svg" width="843" height="160" viewBox="0 0 843 160" fill="none"><g clip-path="url(#clip0_2_197)"><path d="M330.29 31.3737H353.548V39.3194C356.046 37.1453 364.109 29.4252 379.001 29.4252C396.524 29.4252 410.447 42.3616 410.447 62.675V115.404H385.88V69.2106C385.88 57.8861 380.357 51.1688 370.362 51.1688C360.68 51.1688 354.854 57.5024 354.854 69.2106V115.404H330.29V31.3737ZM564.291 73.387C564.291 49.1462 583.703 29.4252 609.125 29.4252C634.54 29.4252 653.945 49.1462 653.945 73.387C653.945 97.621 634.537 117.319 609.125 117.319C583.703 117.319 564.291 97.621 564.291 73.387ZM588.542 73.387C588.542 84.9941 597.215 94.5451 609.269 94.5451C621.344 94.5451 630.03 84.9941 630.03 73.387C630.03 61.7731 621.344 52.2289 609.269 52.2289C597.218 52.2289 588.542 61.7731 588.542 73.387ZM226.9 73.4038C226.9 49.153 246.321 29.4319 271.72 29.4319C297.148 29.4319 316.563 49.153 316.563 73.4038C316.563 97.6311 297.148 117.322 271.72 117.322C246.318 117.325 226.9 97.6311 226.9 73.4038ZM251.15 73.3971C251.15 85.011 259.823 94.5619 271.891 94.5619C283.966 94.5619 292.639 85.011 292.639 73.3971C292.639 61.7731 283.966 52.239 271.891 52.239C259.823 52.239 251.15 61.7731 251.15 73.3971ZM773.116 22.0651H798.016V0.681549H773.116V22.0651ZM773.116 115.404H798.016V31.3737H773.116V115.404ZM817.219 115.404H842.129V0.681549H817.219V115.404ZM691.96 115.404H668.345V0.681549H692.229V38.0439C693.414 37.1722 701.151 29.4252 718.055 29.4252C740.165 29.4252 758.618 48.4126 758.618 73.4038C758.618 98.3479 738.964 117.335 717.772 117.335C701.652 117.335 693.966 110.255 692.229 108.935L691.96 115.404ZM733.381 73.3399C733.381 61.5241 724.422 52.3568 712.425 52.3568C700.498 52.3568 691.341 61.4399 691.341 73.4072C691.341 85.223 700.373 94.3903 712.398 94.3903C724.305 94.3869 733.381 85.1893 733.381 73.3399ZM82.0608 115.404H110.865L136.758 82.1269L152.902 98.4792L115.96 144.733H144.865L168.52 114.078L213.044 159.392H247.94L183.947 95.0431L234.344 31.3737H205.422L168.177 79.1956L152.06 62.9947L193.492 10.818H164.647L136.351 47.2246L120.985 31.3737H86.5704L121.234 66.3702L82.0608 115.404ZM0.787109 0.681549V115.404H76.343V93.9965H26.4918V66.5856H74.105V45.8347H26.4918V22.055H76.343V0.681549H0.787109ZM430.124 0.681549V115.404H454.298V28.7824H455.395L476.193 115.407H503.348L524.634 28.7824H525.734V115.407H549.904V0.681549H510.432L490.778 84.4086H489.903L470.737 0.681549H430.124Z" fill="#ED1B2D"></path></g><defs><clipPath id="clip0_2_197"><rect width="841.342" height="158.711" fill="white" transform="translate(0.787109 0.681549)"></rect></clipPath></defs></svg> 