<?xml version="1.0" encoding="UTF-8"?> <svg xmlns="http://www.w3.org/2000/svg" width="1069" height="253" viewBox="0 0 1069 253" fill="none"><g clip-path="url(#clip0_61_193)"><mask id="mask0_61_193" style="mask-type:luminance" maskUnits="userSpaceOnUse" x="0" y="0" width="1067" height="251"><path d="M0.172852 0.0158691H1066.66V250.102H0.172852V0.0158691Z" fill="white"></path></mask><g mask="url(#mask0_61_193)"><path d="M295.107 71.9153H329.495V118.005H374.907V71.9153H409.258V195.096H374.907V148.292H329.457V195.096H295.069V71.9153H295.107ZM439.018 133.844V133.506C439.018 98.1392 467.086 69.4321 505.349 69.4321C543.613 69.4321 571.304 97.763 571.304 133.13V133.468C571.304 168.835 543.237 197.504 504.973 197.504C466.71 197.542 439.018 169.211 439.018 133.844ZM536.239 133.844V133.506C536.239 115.747 523.936 100.246 505.011 100.246C486.236 100.246 474.31 115.371 474.31 133.167V133.506C474.31 151.264 486.613 166.765 505.387 166.765C524.274 166.765 536.239 151.64 536.239 133.844ZM602.645 71.9153H637.033V165.185H693.845V195.096H602.645V71.9153ZM711.115 133.844V133.506C711.115 97.6125 738.919 69.4321 776.505 69.4321C801.826 69.4321 818.155 80.0045 829.141 95.1293L803.256 115.032C796.183 106.228 788.018 100.585 776.167 100.585C758.822 100.585 746.594 115.183 746.594 133.13V133.468C746.594 151.941 758.822 166.389 776.167 166.389C789.109 166.389 796.709 160.407 804.159 151.415L830.044 169.7C818.343 185.728 802.579 197.504 775.113 197.504C739.634 197.542 711.115 170.641 711.115 133.844ZM860.896 71.9153H895.435V195.096H860.896V71.9153ZM930.989 71.9153H967.296L998.825 119.622L1030.35 71.9153H1066.66V195.096H1032.46V123.046L998.825 171.28H998.11L964.625 123.423V195.096H930.952V71.9153H930.989Z" fill="white"></path><path d="M163.31 0.0158691C130.389 0.0158691 102.134 21.0853 94.5338 53.5548C92.9536 60.5152 91.8625 69.4697 91.8625 81.7727V105.739H143.144V51.2973H183.477V139.751C213.049 131.023 234.796 103.708 234.796 71.2004C234.796 31.1309 203.418 0.0158691 163.31 0.0158691ZM71.0188 246.378C103.977 246.378 132.835 225.308 140.435 192.839C142.015 185.878 143.106 176.924 143.106 164.621V140.654H91.8248V195.096H51.4919V106.642C21.9195 115.371 0.172852 142.686 0.172852 175.155C0.172852 216.956 29.2186 246.378 71.0188 246.378Z" fill="url(#paint0_linear_61_193)"></path></g></g><defs><linearGradient id="paint0_linear_61_193" x1="-6.61451" y1="175.772" x2="240.947" y2="70.6887" gradientUnits="userSpaceOnUse"><stop offset="0.15" stop-color="#94C12E"></stop><stop offset="0.186" stop-color="#8DC137"></stop><stop offset="0.245" stop-color="#7BC04F"></stop><stop offset="0.32" stop-color="#5EBF77"></stop><stop offset="0.407" stop-color="#36BDAE"></stop><stop offset="0.5" stop-color="#04BBF1"></stop><stop offset="0.586" stop-color="#05B7ED"></stop><stop offset="0.674" stop-color="#08ABE0"></stop><stop offset="0.764" stop-color="#0C98CC"></stop><stop offset="0.855" stop-color="#117DAF"></stop><stop offset="0.946" stop-color="#185B8A"></stop><stop offset="1" stop-color="#1D4370"></stop></linearGradient><clipPath id="clip0_61_193"><rect width="1068.52" height="252.081" fill="white" transform="translate(0.172852 0.0158691)"></rect></clipPath></defs></svg> 