<?xml version="1.0" encoding="UTF-8"?> <svg xmlns="http://www.w3.org/2000/svg" width="1201" height="801" viewBox="0 0 1201 801" fill="none"><g clip-path="url(#clip0_61_166)"><mask id="mask0_61_166" style="mask-type:luminance" maskUnits="userSpaceOnUse" x="-2656" y="-1789" width="7810" height="10107"><path d="M-2655.49 8317.15H5153.53V-1788.65H-2655.49V8317.15Z" fill="white"></path></mask><g mask="url(#mask0_61_166)"><path d="M481.76 392.569C482.602 391.663 541.387 329.612 541.387 329.612H485.703C485.703 329.612 433.413 377.908 431.103 380.039V329.612H378.762V471.961H431.103V441.388C431.55 440.993 441.082 432.622 442.077 431.741C442.996 432.852 474.806 471.961 474.806 471.961H545.457C545.457 471.961 482.538 393.526 481.76 392.569Z" fill="white"></path></g><path d="M1007.06 329.472V380.307L961.791 380.257L961.713 329.472H908.032V471.605L962.019 471.579V419.927H1006.6V471.579L1061.99 471.605V329.472H1007.06Z" fill="white"></path><mask id="mask1_61_166" style="mask-type:luminance" maskUnits="userSpaceOnUse" x="-2656" y="-1789" width="7810" height="10107"><path d="M-2655.49 8317.15H5153.53V-1788.65H-2655.49V8317.15Z" fill="white"></path></mask><g mask="url(#mask1_61_166)"><path d="M652.087 372.99V429.95C652.087 435.756 647.889 440.477 642.734 440.477H612.506C607.338 440.477 603.141 435.756 603.141 429.95V372.99C603.141 367.185 607.338 362.463 612.506 362.463H642.734C647.889 362.463 652.087 367.185 652.087 372.99ZM673.843 329.646H581.117C563.751 329.646 549.626 345.595 549.626 365.194V435.986C549.626 455.623 563.751 471.573 581.117 471.573H673.843C691.196 471.573 705.334 455.623 705.334 435.986V365.194C705.334 345.595 691.196 329.646 673.843 329.646ZM882.874 381.217V370.422C883.04 357.675 878.358 344.915 870.689 337.131C865.853 332.244 860.264 329.654 854.509 329.654H757.394C741.763 329.654 729.029 347.939 729.029 370.422V430.916C729.029 453.373 741.763 471.646 757.394 471.646H854.509C870.153 471.646 882.874 453.373 882.874 430.916V414.532L831.925 414.648L830.751 428.249C830.176 434.068 826.272 440.295 821.372 440.295H791.68C786.512 440.295 782.314 435.701 782.314 430.048V373.293C782.314 367.64 786.512 363.047 791.68 363.047H821.372C826.553 363.047 830.751 367.64 830.751 373.293V381.217H882.874Z" fill="white"></path></g><mask id="mask2_61_166" style="mask-type:luminance" maskUnits="userSpaceOnUse" x="-2656" y="-1789" width="7810" height="10107"><path d="M-2655.49 8317.15H5153.53V-1788.65H-2655.49V8317.15Z" fill="white"></path></mask><g mask="url(#mask2_61_166)"><path d="M232.823 329.694H138.911V471.789L232.121 471.75C232.121 471.75 210.111 401.341 209.996 400.984L232.823 329.694Z" fill="white"></path></g><path d="M266.072 329.69L223.366 400.814L266.074 471.746H332.003V329.69H266.072Z" fill="#0099D8"></path></g><defs><clipPath id="clip0_61_166"><rect width="1200" height="800" fill="white" transform="translate(0.455322 0.708008)"></rect></clipPath></defs></svg> 