<?xml version="1.0" encoding="UTF-8"?> <svg xmlns="http://www.w3.org/2000/svg" width="1337" height="194" viewBox="0 0 1337 194" fill="none"><path d="M487.257 22.4038H451.957V127.746C441.062 128.941 419.627 130.769 388.193 130.769C365.517 130.769 344.546 129.606 324.246 127.347C324.267 113.754 324.44 22.4038 324.44 22.4038H281.366V164.22L287.143 165.841C288.531 166.234 321.757 175.315 388.193 175.315H388.166C455.834 175.581 487.84 166.207 489.173 165.798L494.837 164.103V22.4038" fill="white"></path><path d="M547.208 31.8783L541.458 33.5096L541.237 164.294L547.122 165.862C548.52 166.234 582.222 175.023 646.882 175.299C711.191 175.299 744.909 166.515 746.307 166.133L752.181 164.576V118.845L742.771 121.523C742.447 121.608 708.772 131.045 646.131 131.045C615.189 131.045 594.872 129.324 583.922 128.048V69.9467C597.744 68.2994 618.477 66.6681 646.714 66.6681C707.692 66.6681 742.679 76.1055 743.03 76.2065L752.44 78.7996L752.376 67.6405L752.127 33.4831L746.399 31.8783C745.027 31.4957 711.995 22.4143 646.714 22.4143C581.417 22.4143 548.569 31.4957 547.208 31.8783Z" fill="white"></path><path d="M970.674 66.5405V66.2855L970.328 132.82C956.501 134.579 935.86 136.593 906.985 136.593C874.267 136.593 850.996 133.83 843.297 132.82L843.481 66.2855C850.662 65.2812 872.172 62.5126 906.985 62.5126C935.52 62.5126 956.501 64.5266 970.674 66.5405ZM807.355 32.4787L801.719 34.1845V164.82L807.55 166.414C808.921 166.781 841.899 175.581 907.158 175.862C971.673 175.862 1005.38 167.073 1006.79 166.707L1012.66 165.139V33.7913L1006.88 32.1599C1005.52 31.7773 972.682 22.6853 907.18 22.6853C840.279 22.6853 808.678 32.0696 807.355 32.4787Z" fill="white"></path><path d="M191.605 30.9749C191.605 30.9749 191.605 54.8872 191.594 70.5206C176.795 61.7474 156.1 51.5076 129.461 43.2817C63.8937 23.0413 31.2883 22.85 29.9277 22.85L22.3635 22.8606V176.309H65.4217V71.95C75.842 73.9905 95.0683 78.2894 119.337 86.2708C158.276 99.0772 183.728 119.312 191.643 126.188C191.643 133.086 191.686 173.886 191.686 173.886H235.829V22.2601L191.605 22.2495" fill="white"></path><path d="M1063.54 34.5193L1059.24 35.7574V172.664H1098.52C1098.52 172.664 1098.52 136.992 1098.5 127.645C1109.24 127.427 1134.87 127.73 1163.29 134.122C1196.88 141.673 1219.78 152.359 1227.61 157.142C1227.59 161.377 1227.54 175.15 1227.54 175.15H1271.16L1271.33 139.144L1268.83 137.183C1268.12 136.646 1255.55 126.943 1230.61 116.379C1252.54 113.829 1264.1 110.794 1264.73 110.63L1269.11 109.445V35.768L1264.82 34.5193C1263.42 34.1101 1229.85 24.5452 1164.37 24.5452C1098.89 24.5452 1064.96 34.1101 1063.54 34.5193ZM1229.65 90.3413C1218.03 92.3553 1197.83 95.06 1166.37 94.8262L1100.33 90.8727V67.4333C1107.51 66.2855 1129.21 63.4054 1166.55 63.4054C1196.32 63.4054 1218.03 65.4193 1229.65 67.7255" fill="white"></path><path d="M1302.96 60.2437C1289.18 60.2437 1277.96 48.9783 1277.96 35.141C1277.96 21.3038 1289.18 10.0437 1302.96 10.0437C1316.76 10.0437 1327.97 21.3038 1327.97 35.141C1327.97 48.9783 1316.76 60.2437 1302.96 60.2437ZM1302.96 15.5807C1292.23 15.5807 1283.48 24.3539 1283.48 35.141C1283.48 45.9335 1292.23 54.7067 1302.96 54.7067C1313.72 54.7067 1322.45 45.9335 1322.45 35.141C1322.45 24.3539 1313.72 15.5807 1302.96 15.5807Z" fill="white"></path><path d="M1292.7 47.7454V21.5481H1303.78C1306.58 21.5481 1308.61 21.7925 1309.87 22.2495C1311.13 22.7331 1312.14 23.562 1312.91 24.763C1313.66 25.9745 1314.05 27.3508 1314.05 28.8918C1314.05 30.858 1313.47 32.4787 1312.32 33.7646C1311.17 35.04 1309.44 35.8424 1307.16 36.1771C1308.3 36.852 1309.23 37.58 1309.97 38.3824C1310.72 39.1741 1311.73 40.5876 1312.98 42.6281L1316.16 47.7454H1309.87L1306.06 42.0436C1304.71 40.0031 1303.78 38.7118 1303.28 38.1911C1302.77 37.6544 1302.25 37.2984 1301.7 37.0964C1301.14 36.9051 1300.24 36.7989 1299.04 36.7989H1297.98V47.7454H1292.7ZM1297.98 32.6169H1301.87C1304.4 32.6169 1305.97 32.5159 1306.61 32.298C1307.24 32.0961 1307.72 31.7241 1308.08 31.2034C1308.43 30.6773 1308.62 30.0184 1308.62 29.2372C1308.62 28.3604 1308.38 27.6431 1307.92 27.0958C1307.45 26.5591 1306.79 26.2137 1305.93 26.0755C1305.51 26.0117 1304.22 25.9852 1302.09 25.9852H1297.98" fill="white"></path></svg> 