<?xml version="1.0" encoding="UTF-8"?> <svg xmlns="http://www.w3.org/2000/svg" xmlns:xlink="http://www.w3.org/1999/xlink" version="1.1" id="Shell_x5F_2012_x5F_PECTEN_x5F_RGB" x="0px" y="0px" viewBox="0 0 141.7 141.7" xml:space="preserve"> <rect x="0" y="0" fill-rule="evenodd" clip-rule="evenodd" fill="none" width="141.7" height="141.7"></rect> <g> <path fill="none" stroke="#FFFFFF" stroke-width="1.75" stroke-miterlimit="40" d="M66.7,101.9h-18l-1.7-13.3l-10.9-7.9 c-0.5-2.3-0.7-4.7-0.7-7.1c0-19.6,15.9-35.4,35.4-35.4c19.6,0,35.4,15.9,35.4,35.4c0,2.4-0.2,4.8-0.7,7.1l-10.9,7.9L93,101.9H75 l-1,0.8c-0.9,0.7-2,1-3.1,1c-1.1,0-2.2-0.4-3.1-1L66.7,101.9z"></path> <path fill="#FBCE07" d="M66.7,101.9h-18l-1.7-13.3l-10.9-7.9c-0.5-2.3-0.7-4.7-0.7-7.1c0-19.6,15.9-35.4,35.4-35.4 c19.6,0,35.4,15.9,35.4,35.4c0,2.4-0.2,4.8-0.7,7.1l-10.9,7.9L93,101.9H75l-1,0.8c-0.9,0.7-2,1-3.1,1c-1.1,0-2.2-0.4-3.1-1 L66.7,101.9z"></path> <path fill-rule="evenodd" clip-rule="evenodd" fill="#DD1D21" d="M66.7,101.9h-18l-1.7-13.3l-10.9-7.9c-0.5-2.3-0.7-4.7-0.7-7.1 c0-19.6,15.9-35.4,35.4-35.4s35.4,15.9,35.4,35.4c0,2.4-0.2,4.8-0.7,7.1l-10.9,7.9L93,101.9H75l-1,0.8c-0.9,0.7-2,1-3.1,1 s-2.2-0.4-3.1-1L66.7,101.9z M67.3,95.7H54.2l-1.3-10.6l-10.8-7.8c-0.3-1.2-0.5-2.5-0.5-3.8c0-2.1,0.4-4.2,1.3-6.1L62,86.7 L43.5,63.8c0.7-3,2.3-5.6,4.6-7.7l16.6,28.7L50,53.4c1.9-2.5,4.6-4.4,7.6-5.3l10.2,35.6l-7.4-37.1c2.3-1.3,4.8-1.9,7.4-1.9 c0.5,0,1.1,0,1.6,0.1l1.5,38.5l1.5-38.5c0.5-0.1,1.1-0.1,1.6-0.1c2.6,0,5.1,0.7,7.4,1.9L74,83.6l10.2-35.6c3,0.9,5.7,2.8,7.6,5.3 L77,84.8l16.6-28.7c2.3,2,3.9,4.7,4.6,7.7L79.7,86.7l19.1-19.3c0.9,1.9,1.3,4,1.3,6.1c0,1.3-0.2,2.5-0.5,3.8l-10.8,7.8l-1.3,10.6 H74.5l-1.9,1.4c-0.5,0.4-1.1,0.5-1.7,0.5c-0.6,0-1.2-0.2-1.7-0.5L67.3,95.7z"></path> </g> </svg> 